<?xml version="1.0" encoding="UTF-8"?>
<svg width="22px" height="22px" viewBox="0 0 22 22" version="1.1" xmlns="http://www.w3.org/2000/svg" xmlns:xlink="http://www.w3.org/1999/xlink">
    <title>introduction-advantage-2</title>
    <defs>
        <polygon id="path-1" points="0 0.0617 1 0.0617 1 0.9383 0 0.9383"></polygon>
        <polygon id="path-3" points="-5.55111512e-17 2.22044605e-16 1.7305 2.22044605e-16 1.7305 1.73 -5.55111512e-17 1.73"></polygon>
        <polygon id="path-5" points="0 0.0617 1 0.0617 1 0.9383 0 0.9383"></polygon>
    </defs>
    <g id="二期" stroke="none" stroke-width="1" fill="none" fill-rule="evenodd">
        <g id="4期-公司简介" transform="translate(-1027.000000, -1179.000000)">
            <g id="优势" transform="translate(0.000000, 969.000000)">
                <g id="编组-2" transform="translate(360.000000, 158.000000)">
                    <g id="2" transform="translate(585.000000, 22.000000)">
                        <g id="introduction-advantage-2" transform="translate(82.000000, 30.000000)">
                            <path d="M11.647,1.159 C11.647,1.799 11.128,2.317 10.488,2.317 C9.848,2.317 9.33,1.799 9.33,1.159 C9.33,0.518 9.848,2.2759572e-13 10.488,2.2759572e-13 C11.128,2.2759572e-13 11.647,0.518 11.647,1.159" id="Fill-1" fill="#FFFFFF" fill-rule="nonzero"></path>
                            <path d="M6.2197,3.0145 C6.2197,2.4285 6.6947,1.9525 7.2807,1.9525 C7.8667,1.9525 8.3417,2.4285 8.3417,3.0145 C8.3417,3.6005 7.8667,4.0755 7.2807,4.0755 C6.6947,4.0755 6.2197,3.6005 6.2197,3.0145" id="Fill-3" fill="#FFFFFF" fill-rule="nonzero"></path>
                            <path d="M3.1099,4.8661 C3.1099,4.3351 3.5409,3.9031 4.0729,3.9031 C4.6049,3.9031 5.0359,4.3351 5.0359,4.8661 C5.0359,5.3981 4.6049,5.8301 4.0729,5.8301 C3.5409,5.8301 3.1099,5.3981 3.1099,4.8661" id="Fill-5" fill="#FFFFFF" fill-rule="nonzero"></path>
                            <path d="M4.4408921e-16,6.7186 C4.4408921e-16,6.2396 0.387,5.8536 0.865,5.8536 C1.343,5.8536 1.73,6.2396 1.73,6.7186 C1.73,7.1966 1.343,7.5836 0.865,7.5836 C0.387,7.5836 4.4408921e-16,7.1966 4.4408921e-16,6.7186" id="Fill-7" fill="#FFFFFF" fill-rule="nonzero"></path>
                            <path d="M0.0977,10.4227 C0.0977,9.9977 0.4417,9.6537 0.8657,9.6537 C1.2887,9.6537 1.6327,9.9977 1.6327,10.4227 C1.6327,10.8467 1.2887,11.1907 0.8657,11.1907 C0.4417,11.1907 0.0977,10.8467 0.0977,10.4227" id="Fill-9" fill="#FFFFFF" fill-rule="nonzero"></path>
                            <path d="M0.1953,14.1258 C0.1953,13.7558 0.4953,13.4558 0.8653,13.4558 C1.2353,13.4558 1.5353,13.7558 1.5353,14.1258 C1.5353,14.4958 1.2353,14.7958 0.8653,14.7958 C0.4953,14.7958 0.1953,14.4958 0.1953,14.1258" id="Fill-11" fill="#FFFFFF" fill-rule="nonzero"></path>
                            <path d="M0.293,17.8299 C0.293,17.5149 0.549,17.2579 0.865,17.2579 C1.181,17.2579 1.438,17.5149 1.438,17.8299 C1.438,18.1459 1.181,18.4019 0.865,18.4019 C0.549,18.4019 0.293,18.1459 0.293,17.8299" id="Fill-13" fill="#FFFFFF" fill-rule="nonzero"></path>
                            <path d="M3.5986,19.6825 C3.5986,19.4195 3.8106,19.2075 4.0726,19.2075 C4.3346,19.2075 4.5476,19.4195 4.5476,19.6825 C4.5476,19.9445 4.3346,20.1565 4.0726,20.1565 C3.8106,20.1565 3.5986,19.9445 3.5986,19.6825" id="Fill-15" fill="#FFFFFF" fill-rule="nonzero"></path>
                            <g id="Fill-17-Clipped" transform="translate(6.780300, 20.972300)">
                                <mask id="mask-2" fill="white">
                                    <use xlink:href="#path-1"></use>
                                </mask>
                                <g id="path-1"></g>
                                <path d="M0.1235,0.5617 C0.1235,0.3537 0.2925,0.1847 0.5005,0.1847 C0.7085,0.1847 0.8765,0.3537 0.8765,0.5617 C0.8765,0.7697 0.7085,0.9387 0.5005,0.9387 C0.2925,0.9387 0.1235,0.7697 0.1235,0.5617" id="Fill-17" fill="#FFFFFF" fill-rule="nonzero" mask="url(#mask-2)"></path>
                            </g>
                            <path d="M9.4438,1.159 C9.4438,1.799 9.9628,2.317 10.6028,2.317 C11.2428,2.317 11.7608,1.799 11.7608,1.159 C11.7608,0.518 11.2428,2.2759572e-13 10.6028,2.2759572e-13 C9.9628,2.2759572e-13 9.4438,0.518 9.4438,1.159" id="Fill-19" fill="#FFFFFF" fill-rule="nonzero"></path>
                            <path d="M14.8711,3.0145 C14.8711,2.4285 14.3961,1.9525 13.8101,1.9525 C13.2241,1.9525 12.7491,2.4285 12.7491,3.0145 C12.7491,3.6005 13.2241,4.0755 13.8101,4.0755 C14.3961,4.0755 14.8711,3.6005 14.8711,3.0145" id="Fill-21" fill="#FFFFFF" fill-rule="nonzero"></path>
                            <path d="M17.981,4.8661 C17.981,4.3351 17.55,3.9031 17.018,3.9031 C16.486,3.9031 16.055,4.3351 16.055,4.8661 C16.055,5.3981 16.486,5.8301 17.018,5.8301 C17.55,5.8301 17.981,5.3981 17.981,4.8661" id="Fill-23" fill="#FFFFFF" fill-rule="nonzero"></path>
                            <g id="编组" transform="translate(19.360300, 5.853600)">
                                <g id="Fill-25-Clipped" transform="translate(0.000000, 0.000000)">
                                    <mask id="mask-4" fill="white">
                                        <use xlink:href="#path-3"></use>
                                    </mask>
                                    <g id="path-3"></g>
                                    <path d="M1.731,0.865 C1.731,0.386 1.343,2.22044605e-16 0.865,2.22044605e-16 C0.387,2.22044605e-16 -5.55111512e-17,0.386 -5.55111512e-17,0.865 C-5.55111512e-17,1.343 0.387,1.73 0.865,1.73 C1.343,1.73 1.731,1.343 1.731,0.865" id="Fill-25" fill="#FFFFFF" fill-rule="nonzero" mask="url(#mask-4)"></path>
                                </g>
                            </g>
                            <path d="M20.9932,10.4227 C20.9932,9.9977 20.6492,9.6537 20.2252,9.6537 C19.8022,9.6537 19.4582,9.9977 19.4582,10.4227 C19.4582,10.8467 19.8022,11.1907 20.2252,11.1907 C20.6492,11.1907 20.9932,10.8467 20.9932,10.4227" id="Fill-27" fill="#FFFFFF" fill-rule="nonzero"></path>
                            <path d="M20.8955,14.1258 C20.8955,13.7558 20.5955,13.4558 20.2255,13.4558 C19.8555,13.4558 19.5555,13.7558 19.5555,14.1258 C19.5555,14.4958 19.8555,14.7958 20.2255,14.7958 C20.5955,14.7958 20.8955,14.4958 20.8955,14.1258" id="Fill-29" fill="#FFFFFF" fill-rule="nonzero"></path>
                            <path d="M20.7978,17.8299 C20.7978,17.5149 20.5418,17.2579 20.2258,17.2579 C19.9098,17.2579 19.6528,17.5149 19.6528,17.8299 C19.6528,18.1459 19.9098,18.4019 20.2258,18.4019 C20.5418,18.4019 20.7978,18.1459 20.7978,17.8299" id="Fill-31" fill="#FFFFFF" fill-rule="nonzero"></path>
                            <path d="M17.4922,19.6825 C17.4922,19.4195 17.2802,19.2075 17.0182,19.2075 C16.7562,19.2075 16.5432,19.4195 16.5432,19.6825 C16.5432,19.9445 16.7562,20.1565 17.0182,20.1565 C17.2802,20.1565 17.4922,19.9445 17.4922,19.6825" id="Fill-33" fill="#FFFFFF" fill-rule="nonzero"></path>
                            <g id="Fill-35-Clipped" transform="translate(13.310500, 20.972300)">
                                <mask id="mask-6" fill="white">
                                    <use xlink:href="#path-5"></use>
                                </mask>
                                <g id="path-5"></g>
                                <path d="M0.8765,0.5617 C0.8765,0.3537 0.7075,0.1847 0.4995,0.1847 C0.2925,0.1847 0.1235,0.3537 0.1235,0.5617 C0.1235,0.7697 0.2925,0.9387 0.4995,0.9387 C0.7075,0.9387 0.8765,0.7697 0.8765,0.5617" id="Fill-35" fill="#FFFFFF" fill-rule="nonzero" mask="url(#mask-6)"></path>
                            </g>
                            <path d="M11.2476,5.1122 C11.2476,5.5142 10.9206,5.8412 10.5186,5.8412 C10.1156,5.8412 9.7886,5.5142 9.7886,5.1122 C9.7886,4.7092 10.1156,4.3832 10.5186,4.3832 C10.9206,4.3832 11.2476,4.7092 11.2476,5.1122" id="Fill-37" fill="#FFFFFF" fill-rule="nonzero"></path>
                            <path d="M7.8306,6.2801 C7.8306,5.9111 8.1296,5.6121 8.4986,5.6121 C8.8676,5.6121 9.1666,5.9111 9.1666,6.2801 C9.1666,6.6491 8.8676,6.9481 8.4986,6.9481 C8.1296,6.9481 7.8306,6.6491 7.8306,6.2801" id="Fill-39" fill="#337DFF" fill-rule="nonzero"></path>
                            <path d="M5.8726,7.4461 C5.8726,7.1111 6.1436,6.8401 6.4786,6.8401 C6.8136,6.8401 7.0856,7.1111 7.0856,7.4461 C7.0856,7.7811 6.8136,8.0521 6.4786,8.0521 C6.1436,8.0521 5.8726,7.7811 5.8726,7.4461" id="Fill-41" fill="#337DFF" fill-rule="nonzero"></path>
                            <path d="M3.9141,8.6122 C3.9141,8.3112 4.1581,8.0672 4.4591,8.0672 C4.7601,8.0672 5.0041,8.3112 5.0041,8.6122 C5.0041,8.9132 4.7601,9.1572 4.4591,9.1572 C4.1581,9.1572 3.9141,8.9132 3.9141,8.6122" id="Fill-43" fill="#337DFF" fill-rule="nonzero"></path>
                            <path d="M3.9756,10.9442 C3.9756,10.6772 4.1926,10.4612 4.4586,10.4612 C4.7256,10.4612 4.9426,10.6772 4.9426,10.9442 C4.9426,11.2122 4.7256,11.4272 4.4586,11.4272 C4.1926,11.4272 3.9756,11.2122 3.9756,10.9442" id="Fill-45" fill="#337DFF" fill-rule="nonzero"></path>
                            <path d="M4.0376,13.2762 C4.0376,13.0442 4.2256,12.8542 4.4586,12.8542 C4.6916,12.8542 4.8806,13.0442 4.8806,13.2762 C4.8806,13.5092 4.6916,13.6982 4.4586,13.6982 C4.2256,13.6982 4.0376,13.5092 4.0376,13.2762" id="Fill-47" fill="#337DFF" fill-rule="nonzero"></path>
                            <path d="M4.0991,15.6082 C4.0991,15.4102 4.2601,15.2492 4.4591,15.2492 C4.6581,15.2492 4.8191,15.4102 4.8191,15.6082 C4.8191,15.8072 4.6581,15.9682 4.4591,15.9682 C4.2601,15.9682 4.0991,15.8072 4.0991,15.6082" id="Fill-49" fill="#337DFF" fill-rule="nonzero"></path>
                            <path d="M6.1802,16.7743 C6.1802,16.6103 6.3142,16.4763 6.4792,16.4763 C6.6432,16.4763 6.7772,16.6103 6.7772,16.7743 C6.7772,16.9393 6.6432,17.0733 6.4792,17.0733 C6.3142,17.0733 6.1802,16.9393 6.1802,16.7743" id="Fill-51" fill="#337DFF" fill-rule="nonzero"></path>
                            <path d="M8.2612,17.9413 C8.2612,17.8093 8.3672,17.7043 8.4982,17.7043 C8.6292,17.7043 8.7352,17.8093 8.7352,17.9413 C8.7352,18.0723 8.6292,18.1773 8.4982,18.1773 C8.3672,18.1773 8.2612,18.0723 8.2612,17.9413" id="Fill-53" fill="#337DFF" fill-rule="nonzero"></path>
                            <path d="M9.8433,5.1122 C9.8433,5.5142 10.1703,5.8412 10.5723,5.8412 C10.9753,5.8412 11.3023,5.5142 11.3023,5.1122 C11.3023,4.7092 10.9753,4.3832 10.5723,4.3832 C10.1703,4.3832 9.8433,4.7092 9.8433,5.1122" id="Fill-55" fill="#337DFF" fill-rule="nonzero"></path>
                            <path d="M13.2603,6.2801 C13.2603,5.9111 12.9613,5.6121 12.5923,5.6121 C12.2233,5.6121 11.9243,5.9111 11.9243,6.2801 C11.9243,6.6491 12.2233,6.9481 12.5923,6.9481 C12.9613,6.9481 13.2603,6.6491 13.2603,6.2801" id="Fill-57" fill="#337DFF" fill-rule="nonzero"></path>
                            <path d="M15.2187,7.4461 C15.2187,7.1111 14.9477,6.8401 14.6127,6.8401 C14.2777,6.8401 14.0057,7.1111 14.0057,7.4461 C14.0057,7.7811 14.2777,8.0521 14.6127,8.0521 C14.9477,8.0521 15.2187,7.7811 15.2187,7.4461" id="Fill-59" fill="#337DFF" fill-rule="nonzero"></path>
                            <path d="M17.1768,8.6122 C17.1768,8.3112 16.9328,8.0672 16.6318,8.0672 C16.3308,8.0672 16.0868,8.3112 16.0868,8.6122 C16.0868,8.9132 16.3308,9.1572 16.6318,9.1572 C16.9328,9.1572 17.1768,8.9132 17.1768,8.6122" id="Fill-61" fill="#337DFF" fill-rule="nonzero"></path>
                            <path d="M17.1152,10.9442 C17.1152,10.6772 16.8992,10.4612 16.6322,10.4612 C16.3652,10.4612 16.1482,10.6772 16.1482,10.9442 C16.1482,11.2122 16.3652,11.4272 16.6322,11.4272 C16.8992,11.4272 17.1152,11.2122 17.1152,10.9442" id="Fill-63" fill="#337DFF" fill-rule="nonzero"></path>
                            <path d="M17.0537,13.2762 C17.0537,13.0442 16.8647,12.8542 16.6317,12.8542 C16.3987,12.8542 16.2097,13.0442 16.2097,13.2762 C16.2097,13.5092 16.3987,13.6982 16.6317,13.6982 C16.8647,13.6982 17.0537,13.5092 17.0537,13.2762" id="Fill-65" fill="#337DFF" fill-rule="nonzero"></path>
                            <path d="M16.9922,15.6082 C16.9922,15.4102 16.8302,15.2492 16.6322,15.2492 C16.4322,15.2492 16.2712,15.4102 16.2712,15.6082 C16.2712,15.8072 16.4322,15.9682 16.6322,15.9682 C16.8302,15.9682 16.9922,15.8072 16.9922,15.6082" id="Fill-67" fill="#337DFF" fill-rule="nonzero"></path>
                            <path d="M14.9106,16.7743 C14.9106,16.6103 14.7766,16.4763 14.6126,16.4763 C14.4476,16.4763 14.3136,16.6103 14.3136,16.7743 C14.3136,16.9393 14.4476,17.0733 14.6126,17.0733 C14.7766,17.0733 14.9106,16.9393 14.9106,16.7743" id="Fill-69" fill="#337DFF" fill-rule="nonzero"></path>
                            <path d="M12.8296,17.9413 C12.8296,17.8093 12.7236,17.7043 12.5926,17.7043 C12.4616,17.7043 12.3556,17.8093 12.3556,17.9413 C12.3556,18.0723 12.4616,18.1773 12.5926,18.1773 C12.7236,18.1773 12.8296,18.0723 12.8296,17.9413" id="Fill-71" fill="#337DFF" fill-rule="nonzero"></path>
                            <path d="M10.9316,8.2411 C10.9316,8.4571 10.7566,8.6311 10.5416,8.6311 C10.3266,8.6311 10.1516,8.4571 10.1516,8.2411 C10.1516,8.0261 10.3266,7.8511 10.5416,7.8511 C10.7566,7.8511 10.9316,8.0261 10.9316,8.2411" id="Fill-73" fill="#FFFFFF" fill-rule="nonzero"></path>
                            <path d="M9.1055,8.8661 C9.1055,8.6691 9.2655,8.5091 9.4625,8.5091 C9.6595,8.5091 9.8195,8.6691 9.8195,8.8661 C9.8195,9.0621 9.6595,9.2221 9.4625,9.2221 C9.2655,9.2221 9.1055,9.0621 9.1055,8.8661" id="Fill-75" fill="#FFFFFF" fill-rule="nonzero"></path>
                            <path d="M8.0596,9.4891 C8.0596,9.3091 8.2046,9.1651 8.3836,9.1651 C8.5626,9.1651 8.7076,9.3091 8.7076,9.4891 C8.7076,9.6681 8.5626,9.8121 8.3836,9.8121 C8.2046,9.8121 8.0596,9.6681 8.0596,9.4891" id="Fill-77" fill="#FFFFFF" fill-rule="nonzero"></path>
                            <path d="M7.0132,10.1122 C7.0132,9.9512 7.1432,9.8202 7.3042,9.8202 C7.4652,9.8202 7.5952,9.9512 7.5952,10.1122 C7.5952,10.2722 7.4652,10.4032 7.3042,10.4032 C7.1432,10.4032 7.0132,10.2722 7.0132,10.1122" id="Fill-79" fill="#FFFFFF" fill-rule="nonzero"></path>
                            <path d="M7.0459,11.3582 C7.0459,11.2152 7.1619,11.0992 7.3039,11.0992 C7.4469,11.0992 7.5629,11.2152 7.5629,11.3582 C7.5629,11.5012 7.4469,11.6162 7.3039,11.6162 C7.1619,11.6162 7.0459,11.5012 7.0459,11.3582" id="Fill-81" fill="#FFFFFF" fill-rule="nonzero"></path>
                            <path d="M7.0791,12.6043 C7.0791,12.4793 7.1801,12.3783 7.3041,12.3783 C7.4291,12.3783 7.5301,12.4793 7.5301,12.6043 C7.5301,12.7283 7.4291,12.8293 7.3041,12.8293 C7.1801,12.8293 7.0791,12.7283 7.0791,12.6043" id="Fill-83" fill="#FFFFFF" fill-rule="nonzero"></path>
                            <path d="M7.1118,13.8504 C7.1118,13.7444 7.1978,13.6584 7.3038,13.6584 C7.4108,13.6584 7.4968,13.7444 7.4968,13.8504 C7.4968,13.9564 7.4108,14.0424 7.3038,14.0424 C7.1978,14.0424 7.1118,13.9564 7.1118,13.8504" id="Fill-85" fill="#FFFFFF" fill-rule="nonzero"></path>
                            <path d="M8.2236,14.4735 C8.2236,14.3845 8.2956,14.3135 8.3836,14.3135 C8.4716,14.3135 8.5426,14.3845 8.5426,14.4735 C8.5426,14.5615 8.4716,14.6325 8.3836,14.6325 C8.2956,14.6325 8.2236,14.5615 8.2236,14.4735" id="Fill-87" fill="#FFFFFF" fill-rule="nonzero"></path>
                            <path d="M9.3359,15.0965 C9.3359,15.0265 9.3929,14.9695 9.4619,14.9695 C9.5329,14.9695 9.5889,15.0265 9.5889,15.0965 C9.5889,15.1655 9.5329,15.2225 9.4619,15.2225 C9.3929,15.2225 9.3359,15.1655 9.3359,15.0965" id="Fill-89" fill="#FFFFFF" fill-rule="nonzero"></path>
                            <path d="M10.1592,8.2411 C10.1592,8.4571 10.3342,8.6311 10.5492,8.6311 C10.7642,8.6311 10.9392,8.4571 10.9392,8.2411 C10.9392,8.0261 10.7642,7.8511 10.5492,7.8511 C10.3342,7.8511 10.1592,8.0261 10.1592,8.2411" id="Fill-91" fill="#FFFFFF" fill-rule="nonzero"></path>
                            <path d="M11.9853,8.8661 C11.9853,8.6691 11.8253,8.5091 11.6283,8.5091 C11.4313,8.5091 11.2713,8.6691 11.2713,8.8661 C11.2713,9.0621 11.4313,9.2221 11.6283,9.2221 C11.8253,9.2221 11.9853,9.0621 11.9853,8.8661" id="Fill-93" fill="#FFFFFF" fill-rule="nonzero"></path>
                            <path d="M13.0317,9.4891 C13.0317,9.3091 12.8857,9.1651 12.7077,9.1651 C12.5287,9.1651 12.3837,9.3091 12.3837,9.4891 C12.3837,9.6681 12.5287,9.8121 12.7077,9.8121 C12.8857,9.8121 13.0317,9.6681 13.0317,9.4891" id="Fill-95" fill="#FFFFFF" fill-rule="nonzero"></path>
                            <path d="M14.0776,10.1122 C14.0776,9.9512 13.9476,9.8202 13.7866,9.8202 C13.6256,9.8202 13.4956,9.9512 13.4956,10.1122 C13.4956,10.2722 13.6256,10.4032 13.7866,10.4032 C13.9476,10.4032 14.0776,10.2722 14.0776,10.1122" id="Fill-97" fill="#FFFFFF" fill-rule="nonzero"></path>
                            <path d="M14.0449,11.3582 C14.0449,11.2152 13.9289,11.0992 13.7869,11.0992 C13.6439,11.0992 13.5279,11.2152 13.5279,11.3582 C13.5279,11.5012 13.6439,11.6162 13.7869,11.6162 C13.9289,11.6162 14.0449,11.5012 14.0449,11.3582" id="Fill-99" fill="#FFFFFF" fill-rule="nonzero"></path>
                            <path d="M14.0122,12.6043 C14.0122,12.4793 13.9112,12.3783 13.7862,12.3783 C13.6622,12.3783 13.5612,12.4793 13.5612,12.6043 C13.5612,12.7283 13.6622,12.8293 13.7862,12.8293 C13.9112,12.8293 14.0122,12.7283 14.0122,12.6043" id="Fill-101" fill="#FFFFFF" fill-rule="nonzero"></path>
                            <path d="M13.979,13.8504 C13.979,13.7444 13.893,13.6584 13.787,13.6584 C13.68,13.6584 13.594,13.7444 13.594,13.8504 C13.594,13.9564 13.68,14.0424 13.787,14.0424 C13.893,14.0424 13.979,13.9564 13.979,13.8504" id="Fill-103" fill="#FFFFFF" fill-rule="nonzero"></path>
                            <path d="M12.8672,14.4735 C12.8672,14.3845 12.7952,14.3135 12.7072,14.3135 C12.6192,14.3135 12.5482,14.3845 12.5482,14.4735 C12.5482,14.5615 12.6192,14.6325 12.7072,14.6325 C12.7952,14.6325 12.8672,14.5615 12.8672,14.4735" id="Fill-105" fill="#FFFFFF" fill-rule="nonzero"></path>
                            <path d="M11.7549,15.0965 C11.7549,15.0265 11.6979,14.9695 11.6289,14.9695 C11.5589,14.9695 11.5019,15.0265 11.5019,15.0965 C11.5019,15.1655 11.5589,15.2225 11.6289,15.2225 C11.6979,15.2225 11.7549,15.1655 11.7549,15.0965" id="Fill-107" fill="#FFFFFF" fill-rule="nonzero"></path>
                        </g>
                    </g>
                </g>
            </g>
        </g>
    </g>
</svg>