<?xml version="1.0" encoding="UTF-8"?>
<svg width="21px" height="23px" viewBox="0 0 21 23" version="1.1" xmlns="http://www.w3.org/2000/svg" xmlns:xlink="http://www.w3.org/1999/xlink">
    <title>introduction-advantage-4</title>
    <g id="二期" stroke="none" stroke-width="1" fill="none" fill-rule="evenodd">
        <g id="4期-公司简介" transform="translate(-1028.000000, -1370.000000)">
            <g id="优势" transform="translate(0.000000, 969.000000)">
                <g id="编组-2" transform="translate(360.000000, 158.000000)">
                    <g id="4" transform="translate(585.000000, 214.000000)">
                        <g id="introduction-advantage-4" transform="translate(84.000000, 30.000000)">
                            <path d="M7.13224042,6.6775 C12.1292404,3.7925 17.1552404,3.1415 18.3572404,5.2235 C19.5592404,7.3065 16.4832404,11.3325 11.4862404,14.2185 C6.48824042,17.1035 1.46224042,17.7545 0.260240416,15.6725 C-0.941759584,13.5895 2.13424042,9.5635 7.13224042,6.6775 Z" id="Stroke-1" stroke="#FFFFFF" stroke-width="0.871" stroke-linecap="round" stroke-linejoin="round"></path>
                            <path d="M7.13224042,6.6775 C12.1292404,3.7925 17.1552404,3.1415 18.3572404,5.2235 C19.5592404,7.3065 16.4832404,11.3325 11.4862404,14.2185 C6.48824042,17.1035 1.46224042,17.7545 0.260240416,15.6725 C-0.941759584,13.5895 2.13424042,9.5635 7.13224042,6.6775 Z" id="Stroke-3" stroke="#FFFFFF" stroke-width="0.871" stroke-linecap="round" stroke-linejoin="round"></path>
                            <path d="M13.6625404,10.448 C13.6625404,16.219 11.7135404,20.896 9.30854042,20.896 C6.90454042,20.896 4.95554042,16.219 4.95554042,10.448 C4.95554042,4.677 6.90454042,0 9.30854042,0 C11.7135404,0 13.6625404,4.677 13.6625404,10.448 Z" id="Stroke-5" stroke="#337DFF"></path>
                            <path d="M7.13224042,14.2185 C2.13424042,11.3325 -0.941759584,7.3065 0.260240416,5.2235 C1.46224042,3.1415 6.48824042,3.7925 11.4862404,6.6775 C16.4832404,9.5635 19.5592404,13.5895 18.3572404,15.6725 C17.1552404,17.7545 12.1292404,17.1035 7.13224042,14.2185 Z" id="Stroke-7" stroke="#FFFFFF" stroke-width="0.871" stroke-linecap="round" stroke-linejoin="round"></path>
                            <path d="M13.5414404,8.0046 C12.9014404,7.5446 12.2144404,7.0986 11.4854404,6.6776 C10.7564404,6.2566 10.0274404,5.8896 9.30944042,5.5656 C8.59044042,5.8896 7.86144042,6.2566 7.13244042,6.6776 C6.40344042,7.0986 5.71644042,7.5446 5.07644042,8.0046 C4.99844042,8.7886 4.95544042,9.6066 4.95544042,10.4476 C4.95544042,11.2896 4.99844042,12.1076 5.07644042,12.8916 C5.71644042,13.3516 6.40344042,13.7976 7.13244042,14.2186 C7.86144042,14.6396 8.59044042,15.0066 9.30944042,15.3306 C10.0274404,15.0066 10.7564404,14.6396 11.4854404,14.2186 C12.2144404,13.7976 12.9014404,13.3516 13.5414404,12.8916 C13.6194404,12.1076 13.6624404,11.2896 13.6624404,10.4476 C13.6624404,9.6066 13.6194404,8.7886 13.5414404,8.0046 Z" id="Stroke-9" stroke="#FFFFFF" stroke-width="0.871" stroke-linecap="round" stroke-linejoin="round"></path>
                            <path d="M8.65574042,15.0193 C8.65574042,15.3793 8.94774042,15.6723 9.30874042,15.6723 C9.66974042,15.6723 9.96174042,15.3793 9.96174042,15.0193 C9.96174042,14.6593 9.66974042,14.3663 9.30874042,14.3663 C8.94774042,14.3663 8.65574042,14.6593 8.65574042,15.0193 Z" id="Stroke-11" stroke="#337DFF"></path>
                        </g>
                    </g>
                </g>
            </g>
        </g>
    </g>
</svg>