<?xml version="1.0" encoding="UTF-8"?>
<svg width="23px" height="23px" viewBox="0 0 23 23" version="1.1" xmlns="http://www.w3.org/2000/svg" xmlns:xlink="http://www.w3.org/1999/xlink">
    <title>introduction-advantage-1</title>
    <g id="二期" stroke="none" stroke-width="1" fill="none" fill-rule="evenodd">
        <g id="4期-公司简介" transform="translate(-407.000000, -1156.000000)">
            <g id="优势" transform="translate(0.000000, 969.000000)">
                <g id="编组-2" transform="translate(360.000000, 158.000000)">
                    <g id="introduction-advantage-1" transform="translate(48.000000, 30.000000)">
                        <g id="编组" stroke="#FFFFFF">
                            <path d="M10.55845,1.85675 L1.85645,10.55875 L0.22545,8.92675 C-0.07455,8.62775 -0.07455,8.13975 0.22545,7.83875 L7.83945,0.22575 C8.13945,-0.07525 8.62645,-0.07525 8.92745,0.22575" id="Stroke-2"></path>
                            <path d="M10.55845,19.26005 L19.26045,10.55905 L20.89145,12.19105 C21.19245,12.49005 21.19245,12.97805 20.89145,13.27805 L13.27745,20.89205 C12.97745,21.19305 12.49045,21.19305 12.19045,20.89205" id="Stroke-6"></path>
                            <path d="M1.85675,10.55885 L10.55875,19.25985 L8.92675,20.89185 C8.62675,21.19285 8.13975,21.19285 7.83875,20.89185 L0.22575,13.27785 C-0.07525,12.97785 -0.07525,12.49085 0.22575,12.19085" id="Stroke-8"></path>
                            <path d="M19.26005,10.55885 L10.55805,1.85685 L12.19005,0.22585 C12.49005,-0.07515 12.97705,-0.07515 13.27805,0.22585 L20.89205,7.83885 C21.19205,8.13985 21.19205,8.62685 20.89205,8.92685" id="Stroke-4"></path>
                        </g>
                        <polygon id="Stroke-1" stroke="#337DFF" points="19.26005 10.55885 10.55805 19.25985 1.85705 10.55885 10.55805 1.85685"></polygon>
                    </g>
                </g>
            </g>
        </g>
    </g>
</svg>