<?xml version="1.0" encoding="UTF-8"?>
<svg width="15px" height="14px" viewBox="0 0 15 14" version="1.1" xmlns="http://www.w3.org/2000/svg" xmlns:xlink="http://www.w3.org/1999/xlink">
    <title>xuanzhong-4</title>
    <defs>
        <filter id="filter-1">
            <feColorMatrix in="SourceGraphic" type="matrix" values="0 0 0 0 0.000000 0 0 0 0 0.356863 0 0 0 0 0.635294 0 0 0 1.000000 0"></feColorMatrix>
        </filter>
    </defs>
    <g id="二期" stroke="none" stroke-width="1" fill="none" fill-rule="evenodd">
        <g id="xuanzhong-4" transform="translate(-153.000000, -569.000000)" filter="url(#filter-1)">
            <g transform="translate(153.000000, 569.000000)">
                <path d="M0,8.86498195 C1.38042204,8.0534296 2.76084408,7.24187726 4.14126612,6.42888087 C4.80803048,7.6866426 5.47772567,8.94729242 6.14449004,10.2050542 C6.14595545,10.2064982 7.88393904,6.5833935 9.39917937,4.58050542 C11.0096717,2.45054152 12.351993,0.857761733 14.5618406,0 C14.3229777,0.670036101 14.257034,1.29386282 14.257034,2.33935018 C14.2951348,3.16967509 14.4519343,3.966787 15,5.22021661 C13.9346424,5.70397112 12.9381594,6.32057762 12.4267292,6.75523466 C11.7189332,7.35740072 11.0712192,8.04909747 10.4220399,8.71913357 C8.9580891,10.368231 8.20046893,11.3068592 6.4038687,14 C5.07180539,12.4129964 4.71424385,12.0909747 3.67379836,11.1971119 C2.41500586,10.1169675 1.70867526,9.68375451 0,8.86498195 Z" id="路径" fill="#000000" fill-rule="nonzero"></path>
            </g>
        </g>
    </g>
</svg>