<?xml version="1.0" encoding="UTF-8"?>
<svg width="290px" height="170px" viewBox="0 0 290 170" version="1.1" xmlns="http://www.w3.org/2000/svg" xmlns:xlink="http://www.w3.org/1999/xlink">
    <title>矩形备份 7</title>
    <defs>
        <rect id="path-1" x="0" y="0" width="290" height="170"></rect>
    </defs>
    <g id="二期" stroke="none" stroke-width="1" fill="none" fill-rule="evenodd">
        <g id="四期-新闻中心" transform="translate(-268.000000, -1544.000000)">
            <g id="矩形备份-7" transform="translate(268.000000, 1544.000000)">
                <mask id="mask-2" fill="white">
                    <use xlink:href="#path-1"></use>
                </mask>
                <use id="矩形备份-3" fill="#D8D8D8" xlink:href="#path-1"></use>
                <g id="duotiaoxinwenbianbo" mask="url(#mask-2)" fill-rule="nonzero">
                    <g transform="translate(44.000000, -15.000000)">
                        <path d="M0,100.5 C0,136.405192 19.1551911,169.582957 50.2499996,187.535553 C81.344808,205.488149 119.655192,205.488149 150.75,187.535553 C181.844809,169.582957 201,136.405192 201,100.5 C201,64.5948084 181.844809,31.4170429 150.75,13.464447 C119.655192,-4.48814899 81.344808,-4.48814899 50.2499996,13.464447 C19.1551911,31.4170429 0,64.5948084 0,100.5 Z" id="路径" fill="#D8D8D8"></path>
                        <path d="M153.395792,42.447205 C153.395792,42.5457487 153.415433,42.6245837 153.415433,42.7034188 C153.415433,45.5808959 151.097797,47.9262368 148.210573,47.9262368 C145.34299,47.9262368 143.005713,45.6006047 143.005713,42.7034188 C143.005713,42.6048751 143.025354,42.5260401 143.025354,42.447205 L139.332849,42.447205 C139.332849,42.5457487 139.35249,42.6245837 139.35249,42.7034188 C139.35249,45.5808959 137.034855,47.9262368 134.14763,47.9262368 C131.260405,47.9262368 128.94277,45.6006047 128.94277,42.7034188 C128.94277,42.6048751 128.962411,42.5260401 128.962411,42.447205 L125.269906,42.447205 C125.269906,42.5457487 125.289547,42.6245837 125.289547,42.7034188 C125.289547,45.5808959 122.971911,47.9262368 120.084687,47.9262368 C117.197463,47.9262368 114.879827,45.6006047 114.879827,42.7034188 C114.879827,42.6048751 114.899468,42.5260401 114.899468,42.447205 L111.206963,42.447205 C111.206963,42.5457487 111.226604,42.6245837 111.226604,42.7034188 C111.226604,45.5808959 108.908968,47.9262368 106.021744,47.9262368 C103.134519,47.9262368 100.816884,45.6006047 100.816884,42.7034188 C100.816884,42.6048751 100.836525,42.5260401 100.836525,42.447205 L97.14402,42.447205 C97.14402,42.5457487 97.1636611,42.6245837 97.1636611,42.7034188 C97.1636611,45.5808959 94.8460252,47.9262368 91.9588009,47.9262368 C89.0715765,47.9262368 86.7539407,45.6006047 86.7539407,42.7034188 C86.7539407,42.6048751 86.7735817,42.5260401 86.7735817,42.447205 L83.0810771,42.447205 C83.0810771,42.5457487 83.1007181,42.6245837 83.1007181,42.7034188 C83.1007181,45.5808959 80.7830822,47.9262368 77.8958579,47.9262368 C75.0282746,47.9262368 72.6909977,45.6006047 72.6909975,42.7034188 C72.6909975,42.6048751 72.7106385,42.5260401 72.7106385,42.447205 L68.6645963,42.447205 L68.6645963,151.062112 L157.304348,151.062112 L157.304348,42.447205 L153.395792,42.447205 L153.395792,42.447205 Z" id="路径" fill="#FFFFFF"></path>
                        <polygon id="路径" fill="#FF7058" points="76.1552795 58.6770186 149.813665 58.6770186 149.813665 92.3850932 76.1552795 92.3850932"></polygon>
                        <path d="M96.9816488,82.0940954 L93.613658,82.0940954 L87.5006574,73.0294205 C87.1502307,72.4984355 86.8971446,72.1001966 86.7608676,71.834704 L86.7219312,71.834704 C86.7803356,72.3467255 86.7998038,73.1242393 86.7998038,74.1672459 L86.7998038,82.0940954 L83.6459627,82.0940954 L83.6459627,67.662678 L87.2475715,67.662678 L93.1269541,76.4428965 C93.3995082,76.8411354 93.6525944,77.2393741 93.8667439,77.6186493 L93.9056803,77.6186493 C93.8472759,77.2773017 93.8278077,76.6135703 93.8278077,75.6274549 L93.8278077,67.6437142 L96.9816488,67.6437142 L96.9816488,82.0940954 L96.9816488,82.0940954 Z M109.246586,82.0940954 L100.369108,82.0940954 L100.369108,67.662678 L108.915628,67.662678 L108.915628,70.3176036 L103.71763,70.3176036 L103.71763,73.5224782 L108.565201,73.5224782 L108.565201,76.1584402 L103.71763,76.1584402 L103.71763,79.4581334 L109.246586,79.4581334 L109.246586,82.0940954 Z M130.992515,67.662678 L127.079416,82.0940954 L123.380467,82.0940954 L120.927479,72.839783 C120.791202,72.3656891 120.713329,71.8157402 120.693861,71.2278638 L120.654925,71.2278638 C120.596521,71.8915952 120.49918,72.4225803 120.382371,72.839783 L117.870979,82.0940954 L114.016284,82.0940954 L110.122653,67.662678 L113.763198,67.662678 L115.846291,77.2773017 C115.943632,77.6945044 116.002036,78.2444533 116.040972,78.9271483 L116.099377,78.9271483 C116.118845,78.4151269 116.235654,77.8462144 116.391399,77.2393741 L119.078004,67.662678 L122.660145,67.662678 L125.093664,77.3531567 C125.191005,77.713468 125.268878,78.2254895 125.327282,78.9081846 L125.366219,78.9081846 C125.385687,78.3771995 125.463559,77.8462142 125.580368,77.2962653 L127.624524,67.662678 L130.992515,67.662678 L130.992515,67.662678 Z M132.199541,81.5441465 L132.199541,78.3203081 C132.803054,78.8133658 133.445503,79.1736771 134.146356,79.420206 C134.84721,79.6667348 135.567532,79.7805173 136.268385,79.7805173 C136.696685,79.7805173 137.047111,79.7425898 137.37807,79.6667348 C137.68956,79.5908798 137.962115,79.496061 138.156796,79.3633146 C138.370946,79.2305683 138.526691,79.0788583 138.624032,78.9081846 C138.721373,78.7375108 138.779777,78.5289094 138.779777,78.3203081 C138.779777,78.0358518 138.701905,77.789323 138.526691,77.5617581 C138.370946,77.3341929 138.137328,77.1445554 137.845306,76.9549178 C137.553283,76.7652803 137.222325,76.5946065 136.832962,76.4049689 C136.443599,76.2342952 136.015299,76.0446576 135.567532,75.8739839 C134.41891,75.39989 133.542843,74.8309773 132.978267,74.1482821 C132.41369,73.4655868 132.121668,72.6501454 132.121668,71.7019577 C132.121668,70.9434074 132.277413,70.2986398 132.588904,69.7676547 C132.900394,69.2366696 133.328694,68.7815395 133.854334,68.4401918 C134.379974,68.0988443 135.002955,67.8333518 135.703809,67.662678 C136.404662,67.4920042 137.144452,67.4161491 137.942646,67.4161491 C138.721373,67.4161491 139.402758,67.4540767 139.986803,67.5488954 C140.590316,67.6437142 141.135424,67.7764606 141.641596,67.9660979 L141.641596,70.981335 C141.38851,70.8106613 141.115956,70.6589511 140.823933,70.5451687 C140.531911,70.4124224 140.22042,70.3176036 139.928398,70.2227848 C139.616908,70.1469298 139.305417,70.0710748 139.013395,70.0331473 C138.701904,69.9952197 138.409882,69.9762561 138.137328,69.9762561 C137.767433,69.9762561 137.417006,70.0141836 137.105516,70.0900386 C136.794025,70.1658936 136.540939,70.2607124 136.32679,70.3934586 C136.11264,70.5262049 135.956895,70.6779149 135.840086,70.8485887 C135.723277,71.0192624 135.664872,71.2278638 135.664872,71.4554289 C135.664872,71.7019577 135.723277,71.910559 135.859554,72.1001966 C135.995831,72.2898341 136.171044,72.4794717 136.42413,72.6501454 C136.657748,72.8208192 136.949771,72.991493 137.300197,73.1621669 C137.650624,73.3328407 138.039987,73.5035144 138.468287,73.6741882 C139.052331,73.9207169 139.59744,74.1672459 140.064675,74.4517022 C140.531911,74.7171947 140.940742,75.0395787 141.271701,75.3809262 C141.60266,75.7222737 141.875214,76.1205126 142.050427,76.5566789 C142.22564,76.9928452 142.322981,77.5048667 142.322981,78.0927431 C142.322981,78.8892208 142.167236,79.571916 141.855746,80.1218649 C141.544255,80.6718137 141.115956,81.10798 140.570847,81.4493278 C140.025739,81.7906753 139.402758,82.0372042 138.701904,82.1699504 C137.981583,82.3216604 137.241793,82.3975155 136.443599,82.3975155 C135.625936,82.3975155 134.866678,82.3216605 134.126888,82.1889142 C133.36763,82.0182404 132.744649,81.8096391 132.199541,81.5441465 L132.199541,81.5441465 Z" id="形状" fill="#FFFFFF"></path>
                        <path d="M76.1552795,98.6273292 L149.813665,98.6273292 L149.813665,103.502688 L76.1552795,103.502688 L76.1552795,98.6273292 Z M76.1552795,110.332139 L149.813665,110.332139 L149.813665,115.207498 L76.1552795,115.207498 L76.1552795,110.332139 Z M76.1552795,122.01721 L149.813665,122.01721 L149.813665,126.892569 L76.1552795,126.892569 L76.1552795,122.01721 Z M76.1552795,133.702281 L113.615941,133.702281 L113.615941,138.57764 L76.1552795,138.57764 L76.1552795,133.702281 Z" id="形状" fill="#E6E9EE"></path>
                        <polygon id="路径" fill="#FFFFFF" points="68.6645963 42.447205 153.559006 42.447205 153.559006 51.1863354 68.6645963 51.1863354"></polygon>
                        <polygon id="路径" fill="#000000" points="43.6956522 51.1863354 136.080745 51.1863354 136.080745 158.552795 43.6956522 158.552795"></polygon>
                        <path d="M128.289361,53.6832298 C128.289361,53.7817736 128.309002,53.8606085 128.309002,53.9394435 C128.309002,56.8169205 125.991367,59.1622615 123.104142,59.1622615 C120.236559,59.1622615 117.899282,56.8366293 117.899282,53.9394435 C117.899282,53.8408997 117.918923,53.7620648 117.918923,53.6832298 L114.226418,53.6832298 C114.226418,53.7817736 114.246059,53.8606085 114.246059,53.9394435 C114.246059,56.8169205 111.928424,59.1622615 109.041199,59.1622615 C106.153975,59.1622615 103.836339,56.8366293 103.836339,53.9394435 C103.836339,53.8408997 103.85598,53.7620648 103.85598,53.6832298 L100.163475,53.6832298 C100.163475,53.7817736 100.183116,53.8606085 100.183116,53.9394435 C100.183116,56.8169205 97.8654804,59.1622615 94.9782561,59.1622615 C92.0910317,59.1622615 89.7733959,56.8366293 89.7733959,53.9394435 C89.7733959,53.8408997 89.7930369,53.7620648 89.7930369,53.6832298 L86.1005322,53.6832298 C86.1005322,53.7817736 86.1201733,53.8606085 86.1201733,53.9394435 C86.1201733,56.8169205 83.8025374,59.1622615 80.9153131,59.1622615 C78.0477298,59.1622615 75.7104529,56.8366293 75.7104527,53.9394435 C75.7104527,53.8408997 75.7300937,53.7620648 75.7300937,53.6832298 L72.037589,53.6832298 C72.037589,53.7817736 72.0572301,53.8606085 72.0572301,53.9394435 C72.0572301,56.8169205 69.7395942,59.1622615 66.8523699,59.1622615 C63.9847866,59.1622615 61.6475097,56.8366293 61.6475097,53.9394435 C61.6475097,53.8408997 61.6671507,53.7620648 61.6671507,53.6832298 L57.974646,53.6832298 C57.974646,53.7817736 57.9942871,53.8606085 57.9942871,53.9394435 C57.9942871,56.8169205 55.6766512,59.1622615 52.7894269,59.1622615 C49.9022025,59.1622615 47.5845667,56.8366293 47.5845665,53.9394435 C47.5845665,53.8408997 47.6042075,53.7620648 47.6042075,53.6832298 L43.6956522,53.6832298 L43.6956522,162.298137 L132.335404,162.298137 L132.335404,53.6832298 L128.289361,53.6832298 L128.289361,53.6832298 Z" id="路径" fill="#FFFFFF"></path>
                        <polygon id="路径" fill="#FF7058" points="51.1863354 68.6645963 124.84472 68.6645963 124.84472 102.372671 51.1863354 102.372671"></polygon>
                        <path d="M72.0127047,93.3301204 L68.6447139,93.3301204 L62.5317133,84.2654455 C62.1812866,83.7344604 61.9282005,83.3362215 61.7919235,83.0707289 L61.7529871,83.0707289 C61.8113915,83.5827504 61.8308597,84.3602642 61.8308597,85.4032708 L61.8308597,93.3301204 L58.6770186,93.3301204 L58.6770186,78.8987027 L62.2786274,78.8987027 L68.15801,87.6789213 C68.4305641,88.0771602 68.6836503,88.4753989 68.8978,88.8546742 L68.9367362,88.8546742 C68.8783318,88.5133267 68.8588636,87.8495953 68.8588636,86.8634799 L68.8588636,78.8797391 L72.0127047,78.8797391 L72.0127047,93.3301204 L72.0127047,93.3301204 Z M84.2776422,93.3301204 L75.4001637,93.3301204 L75.4001637,78.8987027 L83.9466835,78.8987027 L83.9466835,81.5536285 L78.7292181,81.5536285 L78.7292181,84.7585031 L83.5767886,84.7585031 L83.5767886,87.394465 L78.7292181,87.394465 L78.7292181,90.6941584 L84.2776422,90.6941584 L84.2776422,93.3301204 L84.2776422,93.3301204 Z M106.043039,78.8987027 L102.12994,93.3301204 L98.4309907,93.3301204 L95.9780033,84.0758079 C95.8417261,83.601714 95.7638535,83.0517651 95.7443853,82.4638887 L95.7054491,82.4638887 C95.6470448,83.1276201 95.549704,83.6586052 95.432895,84.0758079 L92.921503,93.3301204 L89.0473401,93.3301204 L85.1537092,78.8987027 L88.7942542,78.8987027 L90.8773467,88.5133265 C90.9746875,88.9305292 91.0330918,89.4804781 91.0720282,90.1631733 L91.1304326,90.1631733 C91.1499008,89.6511519 91.2667098,89.0822394 91.422455,88.4753991 L94.1090603,78.8987027 L97.6912009,78.8987027 L100.12472,88.5891815 C100.222061,88.9494928 100.299934,89.4615143 100.358338,90.1442095 L100.397274,90.1442095 C100.416743,89.6132245 100.494615,89.0822392 100.611424,88.5322903 L102.65558,78.8987027 L106.043039,78.8987027 L106.043039,78.8987027 Z M107.230597,92.7801716 L107.230597,89.5563331 C107.83411,90.0493908 108.476559,90.4097021 109.177412,90.6562308 C109.878266,90.9027596 110.598587,91.0165422 111.299441,91.0165422 C111.727741,91.0165422 112.078167,90.9786146 112.409126,90.9027598 C112.720616,90.8269048 112.99317,90.732086 113.187852,90.5993396 C113.402002,90.4665933 113.557747,90.3148833 113.655088,90.1442095 C113.752429,89.9735358 113.810833,89.7649344 113.810833,89.5563331 C113.810833,89.2718767 113.732961,89.025348 113.557747,88.7977829 C113.402002,88.5702177 113.168384,88.3805801 112.876362,88.1909428 C112.584339,88.0013054 112.253381,87.8306315 111.864018,87.6409939 C111.474654,87.4703201 111.046355,87.2806826 110.598587,87.1100086 C109.449966,86.6359147 108.573899,86.0670021 108.009323,85.384307 C107.444746,84.7016118 107.152724,83.8861703 107.152724,82.9379826 C107.152724,82.1794323 107.308469,81.5346647 107.61996,81.0036796 C107.93145,80.4726945 108.35975,80.0175644 108.88539,79.6762167 C109.41103,79.3348692 110.034011,79.0693766 110.734865,78.8987027 C111.435718,78.7280289 112.175508,78.6521739 112.973702,78.6521739 C113.752429,78.6521739 114.433814,78.6901015 115.017859,78.7849203 C115.621371,78.8797391 116.16648,79.0124854 116.672652,79.2021228 L116.672652,82.2173599 C116.419566,82.0466862 116.147012,81.894976 115.854989,81.7811934 C115.562967,81.6674108 115.251476,81.5536283 114.959454,81.4588097 C114.647964,81.3829547 114.336473,81.3070997 114.044451,81.2691721 C113.73296,81.2312445 113.440938,81.2122809 113.168384,81.2122809 C112.798489,81.2122809 112.448062,81.2502085 112.136572,81.3260633 C111.825081,81.4019183 111.571995,81.4967371 111.357845,81.6294834 C111.143696,81.7622298 110.987951,81.9139398 110.871142,82.0846135 C110.754333,82.2552873 110.695928,82.4638887 110.695928,82.6914538 C110.695928,82.9379826 110.754333,83.1465839 110.89061,83.3362215 C111.026887,83.525859 111.2021,83.7154966 111.455186,83.8861703 C111.708272,84.0568441 111.980827,84.2275179 112.331253,84.3981916 C112.68168,84.5688654 113.071043,84.7395392 113.499343,84.9102131 C114.083387,85.1567419 114.628496,85.4032708 115.095731,85.6877271 C115.562967,85.9532197 115.971798,86.2756036 116.302757,86.6169511 C116.633716,86.9582987 116.90627,87.3565376 117.081483,87.7927039 C117.256696,88.2288702 117.354037,88.7408917 117.354037,89.3287681 C117.354037,90.1252458 117.198292,90.807941 116.886802,91.3578899 C116.575311,91.9078388 116.147012,92.3440051 115.601903,92.6853528 C115.056795,93.0267003 114.433814,93.2732292 113.732961,93.4059754 C113.012639,93.5576854 112.272849,93.6335404 111.474654,93.6335404 C110.656992,93.6335404 109.897734,93.5576854 109.157944,93.4249392 C108.398686,93.2542654 107.775705,93.0456641 107.230597,92.7801716 L107.230597,92.7801716 Z" id="形状" fill="#FFFFFF"></path>
                        <path d="M51.1863354,109.863354 L124.84472,109.863354 L124.84472,114.741123 L51.1863354,114.741123 L51.1863354,109.863354 Z M51.1863354,121.554201 L124.84472,121.554201 L124.84472,126.43197 L51.1863354,126.43197 L51.1863354,121.554201 Z M51.1863354,133.245049 L124.84472,133.245049 L124.84472,138.122817 L51.1863354,138.122817 L51.1863354,133.245049 Z M51.1863354,144.935896 L88.6469965,144.935896 L88.6469965,149.813665 L51.1863354,149.813665 L51.1863354,144.935896 Z" id="形状" fill="#E6E9EE"></path>
                        <polygon id="路径" fill="#FFFFFF" points="43.6956522 53.6832298 128.590062 53.6832298 128.590062 62.4223602 43.6956522 62.4223602"></polygon>
                        <path d="M106.118012,132.454303 L106.118012,150.923395 C106.118012,150.923395 125.973991,150.923395 139.826087,167.291925 L139.826087,116.10559 C125.973991,132.454303 106.118012,132.454303 106.118012,132.454303 Z" id="路径" fill="#FF7058"></path>
                        <path d="M143.756917,114.857143 C142.483684,114.857143 141.44551,115.894977 141.44551,117.167793 L141.44551,168.707035 C141.44551,169.979851 142.483684,171.037267 143.756917,171.037267 C145.030149,171.037267 146.068323,169.999433 146.068323,168.707035 L146.068323,117.187375 C146.068323,115.894977 145.030149,114.857143 143.756917,114.857143 Z M87.9501673,133.812305 C86.265583,133.812305 84.8944099,135.18303 84.8944099,136.867062 L84.8944099,148.909857 C84.8944099,150.59389 86.2655832,151.964614 87.9501673,151.964614 L107.773414,151.964614 L107.773414,133.792723 L87.9501673,133.792723 L87.9501673,133.812305 Z" id="形状" fill="#F8E71C"></path>
                        <path d="M161.357405,124.615162 L151.013756,132.870453 L149.813665,131.646727 L157.909522,121.099379 L161.357405,124.615162 Z M161.357405,158.782354 L151.013756,150.527063 L149.813665,151.750788 L157.909522,162.298137 L161.357405,158.782354 Z M166.043478,144.175345 L152.99486,142.563135 L152.99486,140.814956 L166.043478,139.22217 L166.043478,144.175345 Z" id="形状" fill="#FFFFFF"></path>
                    </g>
                </g>
            </g>
        </g>
    </g>
</svg>