<?xml version="1.0" encoding="UTF-8"?>
<svg width="232px" height="136px" viewBox="0 0 232 136" version="1.1" xmlns="http://www.w3.org/2000/svg" xmlns:xlink="http://www.w3.org/1999/xlink">
    <title>矩形备份 7</title>
    <defs>
        <rect id="path-1" x="0" y="0" width="232" height="136"></rect>
    </defs>
    <g id="二期" stroke="none" stroke-width="1" fill="none" fill-rule="evenodd">
        <g id="四期-新闻中心-详情备份" transform="translate(-1135.000000, -1254.000000)">
            <g id="最新及其他" transform="translate(1135.000000, 508.000000)">
                <g id="矩形备份-7" transform="translate(0.000000, 746.000000)">
                    <mask id="mask-2" fill="white">
                        <use xlink:href="#path-1"></use>
                    </mask>
                    <use id="矩形备份-3" fill="#D8D8D8" xlink:href="#path-1"></use>
                    <g id="duotiaoxinwenbianbo" mask="url(#mask-2)" fill-rule="nonzero">
                        <g transform="translate(35.000000, -12.000000)">
                            <path d="M0,80.5 C0,109.25988 15.3432128,135.835105 40.2499997,150.215045 C65.1567865,164.594985 95.8432135,164.594985 120.75,150.215045 C145.656787,135.835105 161,109.25988 161,80.5 C161,51.7401202 145.656787,25.1648951 120.75,10.784955 C95.8432135,-3.59498501 65.1567865,-3.59498501 40.2499997,10.784955 C15.3432128,25.1648951 0,51.7401202 0,80.5 Z" id="路径" fill="#D8D8D8"></path>
                            <path d="M122.869266,34 C122.869266,34.078933 122.884999,34.1420795 122.884999,34.205226 C122.884999,36.5100708 121.028584,38.3886773 118.715932,38.3886773 C116.419012,38.3886773 114.546865,36.5258575 114.546865,34.205226 C114.546865,34.126293 114.562597,34.0631466 114.562597,34 L111.604919,34 C111.604919,34.078933 111.620651,34.1420795 111.620651,34.205226 C111.620651,36.5100708 109.764237,38.3886773 107.451584,38.3886773 C105.138932,38.3886773 103.282517,36.5258575 103.282517,34.205226 C103.282517,34.126293 103.298249,34.0631466 103.298249,34 L100.340572,34 C100.340572,34.078933 100.356304,34.1420795 100.356304,34.205226 C100.356304,36.5100708 98.4998892,38.3886773 96.1872369,38.3886773 C93.8745845,38.3886773 92.0181697,36.5258575 92.0181697,34.205226 C92.0181697,34.126293 92.0339021,34.0631466 92.0339021,34 L89.0762243,34 C89.0762243,34.078933 89.0919566,34.1420795 89.0919566,34.205226 C89.0919566,36.5100708 87.2355418,38.3886773 84.9228893,38.3886773 C82.6102369,38.3886773 80.7538222,36.5258575 80.7538222,34.205226 C80.7538222,34.126293 80.7695546,34.0631466 80.7695546,34 L77.8118767,34 C77.8118767,34.078933 77.8276091,34.1420795 77.8276091,34.205226 C77.8276091,36.5100708 75.9711943,38.3886773 73.658542,38.3886773 C71.3458897,38.3886773 69.4894749,36.5258575 69.4894749,34.205226 C69.4894749,34.126293 69.5052072,34.0631466 69.5052072,34 L66.5475294,34 C66.5475294,34.078933 66.5632617,34.1420795 66.5632617,34.205226 C66.5632617,36.5100708 64.7068469,38.3886773 62.3941946,38.3886773 C60.0972747,38.3886773 58.2251275,36.5258575 58.2251274,34.205226 C58.2251274,34.126293 58.2408597,34.0631466 58.2408597,34 L55,34 L55,121 L126,121 L126,34 L122.869266,34 L122.869266,34 Z" id="路径" fill="#FFFFFF"></path>
                            <polygon id="路径" fill="#FF7058" points="61 47 120 47 120 74 61 74"></polygon>
                            <path d="M77.6818182,65.756962 L74.9840743,65.756962 L70.0875913,58.4962025 C69.8069012,58.0708861 69.6041805,57.7518987 69.4950233,57.5392405 L69.4638354,57.5392405 C69.5106171,57.9493672 69.526211,58.5721519 69.526211,59.407595 L69.526211,65.756962 L67,65.756962 L67,54.1974685 L69.8848707,54.1974685 L74.5942269,61.2303798 C74.8125414,61.5493672 75.0152622,61.8683544 75.1867949,62.1721519 L75.2179827,62.1721519 C75.1712011,61.8987342 75.1556072,61.3670886 75.1556072,60.5772151 L75.1556072,54.1822785 L77.6818182,54.1822785 L77.6818182,65.756962 L77.6818182,65.756962 Z M87.5059721,65.756962 L80.395156,65.756962 L80.395156,54.1974685 L87.2408758,54.1974685 L87.2408758,56.3240506 L83.077306,56.3240506 L83.077306,58.8911393 L86.9601858,58.8911393 L86.9601858,61.0025317 L83.077306,61.0025317 L83.077306,63.6455696 L87.5059721,63.6455696 L87.5059721,65.756962 Z M104.924353,54.1974685 L101.78998,65.756962 L98.8271399,65.756962 L96.8623092,58.3443038 C96.7531519,57.9645569 96.6907763,57.5240506 96.6751824,57.0531645 L96.6439947,57.0531645 C96.5972131,57.5848101 96.5192436,58.0101265 96.4256802,58.3443038 L94.4140677,65.756962 L91.3264764,65.756962 L88.2076974,54.1974685 L91.1237558,54.1974685 L92.7923026,61.8987342 C92.870272,62.2329115 92.9170537,62.6734178 92.9482415,63.2202532 L92.9950231,63.2202532 C93.0106171,62.8101265 93.1041805,62.3544304 93.2289316,61.8683544 L95.3808891,54.1974685 L98.2501659,54.1974685 L100.199403,61.9594937 C100.277372,62.2481013 100.339748,62.6582279 100.386529,63.2050633 L100.417717,63.2050633 C100.433311,62.7797468 100.495687,62.3544303 100.58925,61.913924 L102.226609,54.1974685 L104.924353,54.1974685 L104.924353,54.1974685 Z M105.891174,65.3164557 L105.891174,62.7341771 C106.374585,63.1291139 106.889184,63.4177215 107.450564,63.6151899 C108.011944,63.8126582 108.588918,63.9037975 109.150299,63.9037975 C109.493364,63.9037975 109.774054,63.8734177 110.039151,63.8126582 C110.288653,63.7518987 110.506967,63.6759494 110.662906,63.5696202 C110.834439,63.463291 110.95919,63.3417721 111.03716,63.2050633 C111.115129,63.0683544 111.161911,62.9012658 111.161911,62.7341771 C111.161911,62.506329 111.099536,62.3088607 110.95919,62.1265823 C110.834439,61.9443038 110.647312,61.792405 110.413404,61.6405063 C110.179496,61.4886076 109.914399,61.3518987 109.602522,61.2 C109.290644,61.0632912 108.947578,60.9113924 108.588918,60.7746836 C107.668878,60.3949367 106.967153,59.9392405 106.51493,59.392405 C106.062707,58.8455696 105.828799,58.192405 105.828799,57.4329114 C105.828799,56.8253164 105.95355,56.3088607 106.203052,55.8835443 C106.452555,55.4582279 106.79562,55.093671 107.216656,54.8202532 C107.637691,54.5468355 108.136695,54.3341773 108.698076,54.1974685 C109.259456,54.0607596 109.852024,54 110.491373,54 C111.115129,54 111.660916,54.0303798 112.128733,54.1063292 C112.612143,54.1822785 113.048772,54.2886077 113.454214,54.4405063 L113.454214,56.8556962 C113.251493,56.7189874 113.033178,56.5974683 112.79927,56.5063292 C112.565362,56.4 112.315859,56.3240506 112.081951,56.2481013 C111.832449,56.1873418 111.582946,56.1265823 111.349038,56.0962025 C111.099535,56.0658227 110.865627,56.050633 110.647312,56.050633 C110.351028,56.050633 110.070338,56.0810128 109.820836,56.1417722 C109.571334,56.2025317 109.368613,56.2784811 109.19708,56.3848101 C109.025547,56.4911393 108.900796,56.6126582 108.807233,56.749367 C108.713669,56.8860759 108.666888,57.0531645 108.666888,57.2354431 C108.666888,57.4329114 108.713669,57.6 108.822827,57.7518987 C108.931984,57.9037975 109.072329,58.0556962 109.27505,58.192405 C109.462176,58.3291139 109.696085,58.4658227 109.976775,58.6025317 C110.257465,58.7392405 110.569343,58.8759494 110.912409,59.0126582 C111.380226,59.2101265 111.816855,59.407595 112.191108,59.6354431 C112.565362,59.8481013 112.892833,60.1063292 113.15793,60.3797468 C113.423026,60.6531645 113.64134,60.9721519 113.781685,61.3215189 C113.92203,61.670886 114,62.0810126 114,62.5518987 C114,63.1898733 113.875249,63.7367088 113.625747,64.1772151 C113.376244,64.6177215 113.033179,64.9670885 112.596549,65.2405063 C112.15992,65.513924 111.660916,65.7113924 111.099535,65.8177215 C110.522561,65.9392404 109.929993,66 109.290644,66 C108.6357,66 108.027538,65.9392405 107.43497,65.8329114 C106.826808,65.6962025 106.327803,65.5291139 105.891174,65.3164557 L105.891174,65.3164557 Z" id="形状" fill="#FFFFFF"></path>
                            <path d="M61,79 L120,79 L120,82.9051384 L61,82.9051384 L61,79 Z M61,88.375494 L120,88.375494 L120,92.2806324 L61,92.2806324 L61,88.375494 Z M61,97.7351779 L120,97.7351779 L120,101.640316 L61,101.640316 L61,97.7351779 Z M61,107.094862 L91.0058032,107.094862 L91.0058032,111 L61,111 L61,107.094862 Z" id="形状" fill="#E6E9EE"></path>
                            <polygon id="路径" fill="#FFFFFF" points="55 34 123 34 123 41 55 41"></polygon>
                            <polygon id="路径" fill="#000000" points="35 41 109 41 109 127 35 127"></polygon>
                            <path d="M102.75914,43 C102.75914,43.078933 102.774873,43.1420795 102.774873,43.2052259 C102.774873,45.5100707 100.918458,47.3886771 98.6058055,47.3886771 C96.3088856,47.3886771 94.4367384,45.5258573 94.4367384,43.2052259 C94.4367384,43.1262928 94.4524707,43.0631464 94.4524707,43 L91.4947929,43 C91.4947929,43.078933 91.5105253,43.1420795 91.5105253,43.2052259 C91.5105253,45.5100707 89.6541105,47.3886771 87.3414581,47.3886771 C85.0288058,47.3886771 83.172391,45.5258573 83.1723908,43.2052259 C83.1723908,43.1262928 83.1881232,43.0631464 83.1881232,43 L80.2304454,43 C80.2304454,43.078933 80.2461777,43.1420795 80.2461777,43.2052259 C80.2461777,45.5100707 78.3897629,47.3886771 76.0771106,47.3886771 C73.7644583,47.3886771 71.9080435,45.5258573 71.9080435,43.2052259 C71.9080435,43.1262928 71.9237758,43.0631464 71.9237758,43 L68.966098,43 C68.966098,43.078933 68.9818303,43.1420795 68.9818303,43.2052259 C68.9818303,45.5100707 67.1254155,47.3886771 64.8127632,47.3886771 C62.5158432,47.3886771 60.6436961,45.5258573 60.6436959,43.2052259 C60.6436959,43.1262928 60.6594283,43.0631464 60.6594283,43 L57.7017504,43 C57.7017504,43.078933 57.7174828,43.1420795 57.7174828,43.2052259 C57.7174828,45.5100707 55.861068,47.3886771 53.5484157,47.3886771 C51.2514957,47.3886771 49.3793485,45.5258573 49.3793485,43.2052259 C49.3793485,43.1262928 49.3950809,43.0631464 49.3950809,43 L46.437403,43 C46.437403,43.078933 46.4531354,43.1420795 46.4531354,43.2052259 C46.4531354,45.5100707 44.5967206,47.3886771 42.2840683,47.3886771 C39.971416,47.3886771 38.1150012,45.5258573 38.115001,43.2052259 C38.115001,43.1262928 38.1307334,43.0631464 38.1307334,43 L35,43 L35,130 L106,130 L106,43 L102.75914,43 L102.75914,43 Z" id="路径" fill="#FFFFFF"></path>
                            <polygon id="路径" fill="#FF7058" points="41 55 100 55 100 82 41 82"></polygon>
                            <path d="M57.6818182,74.7569621 L54.9840743,74.7569621 L50.0875913,67.4962026 C49.8069012,67.0708862 49.6041805,66.7518988 49.4950233,66.5392406 L49.4638354,66.5392406 C49.5106171,66.9493672 49.526211,67.572152 49.526211,68.407595 L49.526211,74.7569621 L47,74.7569621 L47,63.1974683 L49.8848707,63.1974683 L54.5942269,70.2303797 C54.8125414,70.5493671 55.0152622,70.8683544 55.1867951,71.172152 L55.2179827,71.172152 C55.1712011,70.8987343 55.1556072,70.3670887 55.1556072,69.5772152 L55.1556072,63.1822785 L57.6818182,63.1822785 L57.6818182,74.7569621 L57.6818182,74.7569621 Z M67.5059721,74.7569621 L60.395156,74.7569621 L60.395156,63.1974683 L67.2408758,63.1974683 L67.2408758,65.3240507 L63.061712,65.3240507 L63.061712,67.8911393 L66.9445919,67.8911393 L66.9445919,70.0025316 L63.061712,70.0025316 L63.061712,72.6455697 L67.5059721,72.6455697 L67.5059721,74.7569621 L67.5059721,74.7569621 Z M84.9399469,63.1974683 L81.805574,74.7569621 L78.8427339,74.7569621 L76.8779031,67.3443038 C76.7687458,66.964557 76.7063702,66.5240507 76.6907763,66.0531646 L76.6595886,66.0531646 C76.612807,66.5848101 76.5348375,67.0101266 76.4412741,67.3443038 L74.4296616,74.7569621 L71.3264764,74.7569621 L68.2076974,63.1974683 L71.1237558,63.1974683 L72.7923026,70.8987342 C72.870272,71.2329115 72.9170537,71.6734178 72.9482415,72.2202533 L72.9950231,72.2202533 C73.0106171,71.8101266 73.1041805,71.3544305 73.2289316,70.8683545 L75.3808891,63.1974683 L78.2501659,63.1974683 L80.1994028,70.9594936 C80.2773723,71.2481012 80.3397479,71.6582279 80.3865295,72.2050634 L80.4177173,72.2050634 C80.4333113,71.779747 80.4956868,71.3544304 80.5892501,70.9139241 L82.2266091,63.1974683 L84.9399469,63.1974683 L84.9399469,63.1974683 Z M85.8911744,74.3164558 L85.8911744,71.7341772 C86.3745852,72.129114 86.8891837,72.4177216 87.450564,72.6151899 C88.0119443,72.8126582 88.5889183,72.9037974 89.1502986,72.9037974 C89.4933643,72.9037974 89.7740544,72.8734176 90.0391505,72.8126583 C90.2886529,72.7518989 90.5069674,72.6759495 90.6629064,72.5696203 C90.8344392,72.4632911 90.9591904,72.3417722 91.0371598,72.2050634 C91.1151293,72.0683545 91.1619109,71.9012659 91.1619111,71.7341772 C91.1619111,71.5063291 91.0995355,71.3088608 90.9591904,71.1265823 C90.8344392,70.9443037 90.6473124,70.792405 90.413404,70.6405064 C90.1794956,70.4886078 89.9143994,70.3518988 89.6025215,70.2000001 C89.2906436,70.0632913 88.947578,69.9113925 88.5889183,69.7746835 C87.6688785,69.3949367 86.9671532,68.9392405 86.5149303,68.3924051 C86.0627073,67.8455696 85.8287989,67.1924051 85.8287989,66.4329114 C85.8287989,65.8253164 85.95355,65.3088608 86.2030523,64.8835443 C86.4525547,64.4582279 86.7956203,64.093671 87.2166556,63.8202532 C87.6376908,63.5468355 88.1366954,63.3341773 88.6980756,63.1974683 C89.2594559,63.0607595 89.8520239,63 90.4913735,63 C91.1151293,63 91.6609157,63.0303798 92.1287325,63.1063292 C92.6121433,63.1822785 93.0487723,63.2886077 93.4542137,63.4405063 L93.4542137,65.8556963 C93.2514931,65.7189874 93.0331784,65.5974683 92.79927,65.5063291 C92.5653615,65.4151898 92.3158592,65.3240505 92.0819509,65.2481013 C91.8324485,65.1873418 91.5829463,65.1265824 91.3490377,65.0962026 C91.0995354,65.0658227 90.8656269,65.050633 90.6473124,65.050633 C90.3510285,65.050633 90.0703384,65.0810128 89.820836,65.1417721 C89.5713337,65.2025316 89.3686131,65.2784809 89.1970802,65.3848101 C89.0255473,65.4911393 88.9007962,65.6126582 88.8072328,65.7493671 C88.7136694,65.8860759 88.6668878,66.0531646 88.6668878,66.2354431 C88.6668878,66.4329114 88.7136694,66.6 88.8228267,66.7518988 C88.9319841,66.9037975 89.0723291,67.0556963 89.2750497,67.1924051 C89.4777703,67.3291139 89.6960849,67.4658228 89.976775,67.6025316 C90.257465,67.7392404 90.569343,67.8759493 90.9124087,68.0126583 C91.3802256,68.2101266 91.8168546,68.407595 92.1911081,68.6354431 C92.5653615,68.8481013 92.8928334,69.1063293 93.1579297,69.3797469 C93.423026,69.6531646 93.6413405,69.972152 93.7816855,70.321519 C93.9220305,70.6708861 94,71.0810127 94,71.5518988 C94,72.1898735 93.8752489,72.736709 93.6257465,73.1772153 C93.3762442,73.6177216 93.0331786,73.9670886 92.5965494,74.2405065 C92.1599204,74.5139241 91.6609157,74.7113926 91.0995355,74.8177216 C90.5225615,74.9392405 89.9299934,75 89.2906436,75 C88.6357001,75 88.027538,74.9392405 87.4349701,74.8329115 C86.8268082,74.6962027 86.3278034,74.529114 85.8911744,74.3164558 L85.8911744,74.3164558 Z" id="形状" fill="#FFFFFF"></path>
                            <path d="M41,88 L100,88 L100,91.9070687 L41,91.9070687 L41,88 Z M41,97.3643105 L100,97.3643105 L100,101.271379 L41,101.271379 L41,97.3643105 Z M41,106.728621 L100,106.728621 L100,110.63569 L41,110.63569 L41,106.728621 Z M41,116.092931 L71.0058032,116.092931 L71.0058032,120 L41,120 L41,116.092931 Z" id="形状" fill="#E6E9EE"></path>
                            <polygon id="路径" fill="#FFFFFF" points="35 43 103 43 103 50 35 50"></polygon>
                            <path d="M85,106.095238 L85,120.888889 C85,120.888889 100.90454,120.888889 112,134 L112,93 C100.90454,106.095238 85,106.095238 85,106.095238 Z" id="路径" fill="#FF7058"></path>
                            <path d="M115.148575,92 C114.128722,92 113.29715,92.8313001 113.29715,93.8508191 L113.29715,135.133496 C113.29715,136.153015 114.128722,137 115.148575,137 C116.168428,137 117,136.1687 117,135.133496 L117,93.866504 C117,92.8313001 116.168428,92 115.148575,92 Z M70.4476464,107.182991 C69.0983028,107.182991 68,108.280934 68,109.629836 L68,119.276054 C68,120.624956 69.098303,121.7229 70.4476464,121.7229 L86.3259687,121.7229 L86.3259687,107.167306 L70.4476464,107.167306 L70.4476464,107.182991 Z" id="形状" fill="#F8E71C"></path>
                            <path d="M129.246479,99.8161244 L120.961268,106.428571 L120,105.448373 L126.484742,97 L129.246479,99.8161244 Z M129.246479,127.183876 L120.961268,120.571429 L120,121.551627 L126.484742,130 L129.246479,127.183876 Z M133,115.483734 L122.548122,114.192362 L122.548122,112.792079 L133,111.516266 L133,115.483734 Z" id="形状" fill="#FFFFFF"></path>
                        </g>
                    </g>
                </g>
            </g>
        </g>
    </g>
</svg>