<?xml version="1.0" encoding="UTF-8"?>
<svg width="239px" height="285px" viewBox="0 0 239 285" version="1.1" xmlns="http://www.w3.org/2000/svg" xmlns:xlink="http://www.w3.org/1999/xlink">
    <title>05</title>
    <defs>
        <rect id="path-1" x="0" y="0" width="239" height="285"></rect>
    </defs>
    <g id="四期五期-六期及后续" stroke="none" stroke-width="1" fill="none" fill-rule="evenodd">
        <g id="七期切图" transform="translate(-896.000000, -578.000000)">
            <g id="05" transform="translate(896.000000, 578.000000)">
                <mask id="mask-2" fill="white">
                    <use xlink:href="#path-1"></use>
                </mask>
                <g id="矩形"></g>
                <g mask="url(#mask-2)" fill="#C5D1E4" fill-rule="nonzero" opacity="0.751825242">
                    <g transform="translate(10.880000, -36.760000)">
                        <path d="M0,48.96 C0,41.28 1.33333333,34.4533333 4,28.48 C6.66666667,22.5066667 10.24,17.3866667 14.72,13.12 C19.2,8.85333333 24.3733333,5.6 30.24,3.36 C36.1066667,1.12 42.24,0 48.64,0 C55.04,0 61.1733333,1.12 67.04,3.36 C72.9066667,5.6 78.08,8.85333333 82.56,13.12 C87.04,17.3866667 90.6133333,22.5066667 93.28,28.48 C95.9466667,34.4533333 97.28,41.28 97.28,48.96 L97.28,182.72 C97.28,190.4 95.9466667,197.226667 93.28,203.2 C90.6133333,209.173333 87.04,214.293333 82.56,218.56 C78.08,222.826667 72.9066667,226.08 67.04,228.32 C61.1733333,230.56 55.04,231.68 48.64,231.68 C42.24,231.68 36.1066667,230.56 30.24,228.32 C24.3733333,226.08 19.2,222.826667 14.72,218.56 C10.24,214.293333 6.66666667,209.173333 4,203.2 C1.33333333,197.226667 0,190.4 0,182.72 L0,48.96 Z M32.64,182.72 C32.64,187.413333 34.1333333,191.306667 37.12,194.4 C40.1066667,197.493333 43.9466667,199.04 48.64,199.04 C53.3333333,199.04 57.1733333,197.493333 60.16,194.4 C63.1466667,191.306667 64.64,187.413333 64.64,182.72 L64.64,48.96 C64.64,44.2666667 63.1466667,40.3733333 60.16,37.28 C57.1733333,34.1866667 53.3333333,32.64 48.64,32.64 C43.9466667,32.64 40.1066667,34.1866667 37.12,37.28 C34.1333333,40.3733333 32.64,44.2666667 32.64,48.96 L32.64,182.72 Z" id="形状"></path>
                        <path d="M216.32,1.92 L216.32,32.64 L151.68,32.64 L151.68,94.08 C154.666667,91.0933333 158.506667,88.5866667 163.2,86.56 C167.893333,84.5333333 173.12,83.52 178.88,83.52 C189.973333,83.52 198.986667,86.88 205.92,93.6 C212.853333,100.32 216.32,110.4 216.32,123.84 L216.32,182.72 C216.32,190.4 214.986667,197.226667 212.32,203.2 C209.653333,209.173333 206.08,214.293333 201.6,218.56 C197.12,222.826667 191.946667,226.08 186.08,228.32 C180.213333,230.56 174.08,231.68 167.68,231.68 C161.28,231.68 155.146667,230.56 149.28,228.32 C143.413333,226.08 138.24,222.826667 133.76,218.56 C129.28,214.293333 125.706667,209.173333 123.04,203.2 C120.373333,197.226667 119.04,190.4 119.04,182.72 L119.04,173.12 L151.68,173.12 L151.68,181.44 C151.68,186.986667 153.226667,191.306667 156.32,194.4 C159.413333,197.493333 163.413333,199.04 168.32,199.04 C173.226667,199.04 177.013333,197.546667 179.68,194.56 C182.346667,191.573333 183.68,187.413333 183.68,182.08 L183.68,128.64 C183.68,124.16 182.24,120.32 179.36,117.12 C176.48,113.92 172.8,112.32 168.32,112.32 C165.546667,112.32 163.2,112.8 161.28,113.76 C159.36,114.72 157.76,115.84 156.48,117.12 C155.2,118.4 154.24,119.786667 153.6,121.28 C152.533333,123.2 151.893333,124.373333 151.68,124.8 L122.88,124.8 L122.88,1.92 L216.32,1.92 Z" id="路径"></path>
                    </g>
                </g>
            </g>
        </g>
    </g>
</svg>