<?xml version="1.0" encoding="UTF-8"?>
<svg width="239px" height="285px" viewBox="0 0 239 285" version="1.1" xmlns="http://www.w3.org/2000/svg" xmlns:xlink="http://www.w3.org/1999/xlink">
    <title>02</title>
    <defs>
        <rect id="path-1" x="0" y="0" width="239" height="285"></rect>
    </defs>
    <g id="四期五期-六期及后续" stroke="none" stroke-width="1" fill="none" fill-rule="evenodd">
        <g id="七期切图" transform="translate(-1467.000000, -578.000000)">
            <g id="02" transform="translate(1467.000000, 578.000000)">
                <mask id="mask-2" fill="white">
                    <use xlink:href="#path-1"></use>
                </mask>
                <g id="矩形"></g>
                <g mask="url(#mask-2)" fill="#C5D1E4" fill-rule="nonzero" opacity="0.751825242">
                    <g transform="translate(10.880000, -36.760000)">
                        <path d="M0,48.96 C0,41.28 1.33333333,34.4533333 4,28.48 C6.66666667,22.5066667 10.24,17.3866667 14.72,13.12 C19.2,8.85333333 24.3733333,5.6 30.24,3.36 C36.1066667,1.12 42.24,0 48.64,0 C55.04,0 61.1733333,1.12 67.04,3.36 C72.9066667,5.6 78.08,8.85333333 82.56,13.12 C87.04,17.3866667 90.6133333,22.5066667 93.28,28.48 C95.9466667,34.4533333 97.28,41.28 97.28,48.96 L97.28,182.72 C97.28,190.4 95.9466667,197.226667 93.28,203.2 C90.6133333,209.173333 87.04,214.293333 82.56,218.56 C78.08,222.826667 72.9066667,226.08 67.04,228.32 C61.1733333,230.56 55.04,231.68 48.64,231.68 C42.24,231.68 36.1066667,230.56 30.24,228.32 C24.3733333,226.08 19.2,222.826667 14.72,218.56 C10.24,214.293333 6.66666667,209.173333 4,203.2 C1.33333333,197.226667 0,190.4 0,182.72 L0,48.96 Z M32.64,182.72 C32.64,187.413333 34.1333333,191.306667 37.12,194.4 C40.1066667,197.493333 43.9466667,199.04 48.64,199.04 C53.3333333,199.04 57.1733333,197.493333 60.16,194.4 C63.1466667,191.306667 64.64,187.413333 64.64,182.72 L64.64,48.96 C64.64,44.2666667 63.1466667,40.3733333 60.16,37.28 C57.1733333,34.1866667 53.3333333,32.64 48.64,32.64 C43.9466667,32.64 40.1066667,34.1866667 37.12,37.28 C34.1333333,40.3733333 32.64,44.2666667 32.64,48.96 L32.64,182.72 Z" id="形状"></path>
                        <path d="M119.04,229.76 L119.04,199.04 L177.92,88 C180.906667,82.4533333 182.613333,77.6 183.04,73.44 C183.466667,69.28 183.68,64.1066667 183.68,57.92 C183.68,55.1466667 183.626667,52.2133333 183.52,49.12 C183.413333,46.0266667 182.826667,43.3066667 181.76,40.96 C180.693333,38.6133333 179.093333,36.64 176.96,35.04 C174.826667,33.44 171.733333,32.64 167.68,32.64 C162.773333,32.64 158.88,34.0266667 156,36.8 C153.12,39.5733333 151.68,43.6266667 151.68,48.96 L151.68,67.52 L119.04,67.52 L119.04,49.6 C119.04,42.7733333 120.32,36.3733333 122.88,30.4 C125.44,24.4266667 128.96,19.2 133.44,14.72 C137.706667,10.24 142.826667,6.66666667 148.8,4 C154.773333,1.33333333 161.173333,0 168,0 C176.533333,0 183.84,1.54666667 189.92,4.64 C196,7.73333333 201.066667,11.9466667 205.12,17.28 C208.96,22.6133333 211.786667,28.6933333 213.6,35.52 C215.413333,42.3466667 216.32,49.6 216.32,57.28 C216.32,62.8266667 216.213333,67.4666667 216,71.2 C215.786667,74.9333333 215.36,78.5066667 214.72,81.92 C214.08,85.3333333 213.013333,88.7466667 211.52,92.16 C210.026667,95.5733333 208,99.7333333 205.44,104.64 L157.44,197.12 L216.32,197.12 L216.32,229.76 L119.04,229.76 Z" id="路径"></path>
                    </g>
                </g>
            </g>
        </g>
    </g>
</svg>