<?xml version="1.0" encoding="UTF-8"?>
<svg width="239px" height="285px" viewBox="0 0 239 285" version="1.1" xmlns="http://www.w3.org/2000/svg" xmlns:xlink="http://www.w3.org/1999/xlink">
    <title>06</title>
    <defs>
        <rect id="path-1" x="0" y="0" width="239" height="285"></rect>
    </defs>
    <g id="四期五期-六期及后续" stroke="none" stroke-width="1" fill="none" fill-rule="evenodd">
        <g id="七期切图" transform="translate(-1175.000000, -578.000000)">
            <g id="06" transform="translate(1175.000000, 578.000000)">
                <mask id="mask-2" fill="white">
                    <use xlink:href="#path-1"></use>
                </mask>
                <g id="矩形"></g>
                <g mask="url(#mask-2)" fill="#C5D1E4" fill-rule="nonzero" id="形状" opacity="0.751825242">
                    <g transform="translate(10.880000, -36.760000)">
                        <path d="M0,48.96 C0,41.28 1.33333333,34.4533333 4,28.48 C6.66666667,22.5066667 10.24,17.3866667 14.72,13.12 C19.2,8.85333333 24.3733333,5.6 30.24,3.36 C36.1066667,1.12 42.24,0 48.64,0 C55.04,0 61.1733333,1.12 67.04,3.36 C72.9066667,5.6 78.08,8.85333333 82.56,13.12 C87.04,17.3866667 90.6133333,22.5066667 93.28,28.48 C95.9466667,34.4533333 97.28,41.28 97.28,48.96 L97.28,182.72 C97.28,190.4 95.9466667,197.226667 93.28,203.2 C90.6133333,209.173333 87.04,214.293333 82.56,218.56 C78.08,222.826667 72.9066667,226.08 67.04,228.32 C61.1733333,230.56 55.04,231.68 48.64,231.68 C42.24,231.68 36.1066667,230.56 30.24,228.32 C24.3733333,226.08 19.2,222.826667 14.72,218.56 C10.24,214.293333 6.66666667,209.173333 4,203.2 C1.33333333,197.226667 0,190.4 0,182.72 L0,48.96 Z M32.64,182.72 C32.64,187.413333 34.1333333,191.306667 37.12,194.4 C40.1066667,197.493333 43.9466667,199.04 48.64,199.04 C53.3333333,199.04 57.1733333,197.493333 60.16,194.4 C63.1466667,191.306667 64.64,187.413333 64.64,182.72 L64.64,48.96 C64.64,44.2666667 63.1466667,40.3733333 60.16,37.28 C57.1733333,34.1866667 53.3333333,32.64 48.64,32.64 C43.9466667,32.64 40.1066667,34.1866667 37.12,37.28 C34.1333333,40.3733333 32.64,44.2666667 32.64,48.96 L32.64,182.72 Z"></path>
                        <path d="M204.48,1.92 L167.36,97.6 L168,98.24 C169.066667,97.3866667 170.72,96.6933333 172.96,96.16 C175.2,95.6266667 178.133333,95.36 181.76,95.36 C187.52,95.36 192.853333,96.7466667 197.76,99.52 C202.666667,102.293333 206.506667,105.813333 209.28,110.08 C210.773333,112.426667 211.946667,114.773333 212.8,117.12 C213.653333,119.466667 214.4,122.56 215.04,126.4 C215.466667,130.24 215.786667,135.093333 216,140.96 C216.213333,146.826667 216.32,154.24 216.32,163.2 C216.32,170.666667 216.213333,176.8 216,181.6 C215.786667,186.4 215.466667,190.4 215.04,193.6 C214.4,197.013333 213.6,199.893333 212.64,202.24 C211.68,204.586667 210.453333,207.04 208.96,209.6 C204.693333,216.64 198.986667,222.08 191.84,225.92 C184.693333,229.76 176.64,231.68 167.68,231.68 C158.72,231.68 150.72,229.706667 143.68,225.76 C136.64,221.813333 130.986667,216.426667 126.72,209.6 C125.013333,207.04 123.68,204.586667 122.72,202.24 C121.76,199.893333 121.066667,197.013333 120.64,193.6 C120,190.4 119.573333,186.4 119.36,181.6 C119.146667,176.8 119.04,170.666667 119.04,163.2 C119.04,156.16 119.146667,150.346667 119.36,145.76 C119.573333,141.173333 119.893333,137.173333 120.32,133.76 C120.746667,130.56 121.386667,127.626667 122.24,124.96 C123.093333,122.293333 124.053333,119.466667 125.12,116.48 L168,1.92 L204.48,1.92 Z M183.68,140.48 C183.68,135.573333 182.08,131.626667 178.88,128.64 C175.68,125.653333 171.946667,124.16 167.68,124.16 C163.413333,124.16 159.68,125.653333 156.48,128.64 C153.28,131.626667 151.68,135.573333 151.68,140.48 L151.68,182.72 C151.68,187.626667 153.28,191.573333 156.48,194.56 C159.68,197.546667 163.413333,199.04 167.68,199.04 C171.946667,199.04 175.68,197.546667 178.88,194.56 C182.08,191.573333 183.68,187.626667 183.68,182.72 L183.68,140.48 Z"></path>
                    </g>
                </g>
            </g>
        </g>
    </g>
</svg>