<?xml version="1.0" encoding="UTF-8"?>
<svg width="239px" height="285px" viewBox="0 0 239 285" version="1.1" xmlns="http://www.w3.org/2000/svg" xmlns:xlink="http://www.w3.org/1999/xlink">
    <title>03</title>
    <defs>
        <rect id="path-1" x="0" y="0" width="239" height="285"></rect>
    </defs>
    <g id="四期五期-六期及后续" stroke="none" stroke-width="1" fill="none" fill-rule="evenodd">
        <g id="七期切图" transform="translate(-288.000000, -578.000000)">
            <g id="03" transform="translate(288.000000, 578.000000)">
                <mask id="mask-2" fill="white">
                    <use xlink:href="#path-1"></use>
                </mask>
                <g id="矩形"></g>
                <g mask="url(#mask-2)" fill="#C5D1E4" fill-rule="nonzero" opacity="0.751825242">
                    <g transform="translate(10.880000, -36.760000)">
                        <path d="M0,48.96 C0,41.28 1.33333333,34.4533333 4,28.48 C6.66666667,22.5066667 10.24,17.3866667 14.72,13.12 C19.2,8.85333333 24.3733333,5.6 30.24,3.36 C36.1066667,1.12 42.24,0 48.64,0 C55.04,0 61.1733333,1.12 67.04,3.36 C72.9066667,5.6 78.08,8.85333333 82.56,13.12 C87.04,17.3866667 90.6133333,22.5066667 93.28,28.48 C95.9466667,34.4533333 97.28,41.28 97.28,48.96 L97.28,182.72 C97.28,190.4 95.9466667,197.226667 93.28,203.2 C90.6133333,209.173333 87.04,214.293333 82.56,218.56 C78.08,222.826667 72.9066667,226.08 67.04,228.32 C61.1733333,230.56 55.04,231.68 48.64,231.68 C42.24,231.68 36.1066667,230.56 30.24,228.32 C24.3733333,226.08 19.2,222.826667 14.72,218.56 C10.24,214.293333 6.66666667,209.173333 4,203.2 C1.33333333,197.226667 0,190.4 0,182.72 L0,48.96 Z M32.64,182.72 C32.64,187.413333 34.1333333,191.306667 37.12,194.4 C40.1066667,197.493333 43.9466667,199.04 48.64,199.04 C53.3333333,199.04 57.1733333,197.493333 60.16,194.4 C63.1466667,191.306667 64.64,187.413333 64.64,182.72 L64.64,48.96 C64.64,44.2666667 63.1466667,40.3733333 60.16,37.28 C57.1733333,34.1866667 53.3333333,32.64 48.64,32.64 C43.9466667,32.64 40.1066667,34.1866667 37.12,37.28 C34.1333333,40.3733333 32.64,44.2666667 32.64,48.96 L32.64,182.72 Z" id="形状"></path>
                        <path d="M157.76,97.92 C167.573333,97.92 174.346667,96.7466667 178.08,94.4 C181.813333,92.0533333 183.68,86.6133333 183.68,78.08 L183.68,48.64 C183.68,43.9466667 182.24,40.1066667 179.36,37.12 C176.48,34.1333333 172.586667,32.64 167.68,32.64 C161.92,32.64 157.813333,34.4533333 155.36,38.08 C152.906667,41.7066667 151.68,45.2266667 151.68,48.64 L151.68,67.2 L119.04,67.2 L119.04,48.32 C119.04,41.7066667 120.32,35.4133333 122.88,29.44 C125.44,23.4666667 128.96,18.3466667 133.44,14.08 C137.92,9.81333333 143.146667,6.4 149.12,3.84 C155.093333,1.28 161.493333,0 168.32,0 C177.28,0 184.693333,1.76 190.56,5.28 C196.426667,8.8 200.853333,12.3733333 203.84,16 C205.973333,18.56 207.84,21.12 209.44,23.68 C211.04,26.24 212.373333,29.3333333 213.44,32.96 C215.36,40 216.32,50.4533333 216.32,64.32 C216.32,72.2133333 216.16,78.6133333 215.84,83.52 C215.52,88.4266667 214.72,92.48 213.44,95.68 C211.946667,99.0933333 209.866667,101.973333 207.2,104.32 C204.533333,106.666667 200.853333,109.226667 196.16,112 C201.28,115.2 205.173333,118.186667 207.84,120.96 C210.506667,123.733333 212.48,126.933333 213.76,130.56 C215.04,134.4 215.786667,138.933333 216,144.16 C216.213333,149.386667 216.32,156.053333 216.32,164.16 C216.32,171.626667 216.16,177.813333 215.84,182.72 C215.52,187.626667 215.04,191.68 214.4,194.88 C213.76,198.293333 212.906667,201.173333 211.84,203.52 C210.773333,205.866667 209.386667,208.32 207.68,210.88 C203.626667,216.853333 198.453333,221.813333 192.16,225.76 C185.866667,229.706667 177.6,231.68 167.36,231.68 C162.24,231.68 156.8,230.826667 151.04,229.12 C145.28,227.413333 140.053333,224.64 135.36,220.8 C130.666667,216.96 126.773333,211.946667 123.68,205.76 C120.586667,199.573333 119.04,192 119.04,183.04 L119.04,164.48 L151.68,164.48 L151.68,181.44 C151.68,186.56 153.12,190.773333 156,194.08 C158.88,197.386667 162.773333,199.04 167.68,199.04 C172.586667,199.04 176.48,197.386667 179.36,194.08 C182.24,190.773333 183.68,186.346667 183.68,180.8 L183.68,148.16 C183.68,139.2 181.973333,133.333333 178.56,130.56 C176.64,128.853333 174.026667,127.786667 170.72,127.36 C167.413333,126.933333 163.093333,126.72 157.76,126.72 L157.76,97.92 Z" id="路径"></path>
                    </g>
                </g>
            </g>
        </g>
    </g>
</svg>