<?xml version="1.0" encoding="UTF-8"?>
<svg width="239px" height="285px" viewBox="0 0 239 285" version="1.1" xmlns="http://www.w3.org/2000/svg" xmlns:xlink="http://www.w3.org/1999/xlink">
    <title>01</title>
    <defs>
        <rect id="path-1" x="0" y="0" width="239" height="285"></rect>
    </defs>
    <g id="四期五期-六期及后续" stroke="none" stroke-width="1" fill="none" fill-rule="evenodd">
        <g id="七期切图" transform="translate(-1728.000000, -578.000000)">
            <g id="01" transform="translate(1728.000000, 578.000000)">
                <mask id="mask-2" fill="white">
                    <use xlink:href="#path-1"></use>
                </mask>
                <g id="矩形"></g>
                <g mask="url(#mask-2)" fill="#C5D1E4" fill-rule="nonzero" opacity="0.751825242">
                    <g transform="translate(10.880000, -36.760000)">
                        <path d="M0,48.96 C0,41.28 1.33333333,34.4533333 4,28.48 C6.66666667,22.5066667 10.24,17.3866667 14.72,13.12 C19.2,8.85333333 24.3733333,5.6 30.24,3.36 C36.1066667,1.12 42.24,0 48.64,0 C55.04,0 61.1733333,1.12 67.04,3.36 C72.9066667,5.6 78.08,8.85333333 82.56,13.12 C87.04,17.3866667 90.6133333,22.5066667 93.28,28.48 C95.9466667,34.4533333 97.28,41.28 97.28,48.96 L97.28,182.72 C97.28,190.4 95.9466667,197.226667 93.28,203.2 C90.6133333,209.173333 87.04,214.293333 82.56,218.56 C78.08,222.826667 72.9066667,226.08 67.04,228.32 C61.1733333,230.56 55.04,231.68 48.64,231.68 C42.24,231.68 36.1066667,230.56 30.24,228.32 C24.3733333,226.08 19.2,222.826667 14.72,218.56 C10.24,214.293333 6.66666667,209.173333 4,203.2 C1.33333333,197.226667 0,190.4 0,182.72 L0,48.96 Z M32.64,182.72 C32.64,187.413333 34.1333333,191.306667 37.12,194.4 C40.1066667,197.493333 43.9466667,199.04 48.64,199.04 C53.3333333,199.04 57.1733333,197.493333 60.16,194.4 C63.1466667,191.306667 64.64,187.413333 64.64,182.72 L64.64,48.96 C64.64,44.2666667 63.1466667,40.3733333 60.16,37.28 C57.1733333,34.1866667 53.3333333,32.64 48.64,32.64 C43.9466667,32.64 40.1066667,34.1866667 37.12,37.28 C34.1333333,40.3733333 32.64,44.2666667 32.64,48.96 L32.64,182.72 Z" id="形状"></path>
                        <polygon id="路径" points="157.76 229.76 157.76 36.48 125.12 60.48 125.12 25.92 157.76 1.92 190.4 1.92 190.4 229.76"></polygon>
                    </g>
                </g>
            </g>
        </g>
    </g>
</svg>